# xmcd CD database file
# Copyright (C) 1993-1998 Ti Kan
# 
# Track frame offsets:
#     150
#     19725
#     45650
#     63225
#     82012
#     99712
#     121375
#     134100
#     150750
# 
# Disc length: 2181 seconds
# 
# Revision: 1
# Processed by: cddbd v1.4b41PL1 Copyright (c) Steve Scherf et al.
# Submitted via: DiscPlay 4.0.4
# 
DISCID=71088309
DTITLE=Stan Webb - Stan Webb's Chicken Shack: 39 Bars
DYEAR=1900
DGENRE=
TTITLE0=Runnin' And Hidin'
TTITLE1=I'd Rather Go Blind
TTITLE2=Who Cares
TTITLE3=Ev'ry Little Bit Of My Heart
TTITLE4=Hold On
TTITLE5=A Blues Song
TTITLE6=Tore Down
TTITLE7=Every Day I Have The Blues
TTITLE8=Five Long Years
EXTD=
EXTT0=
EXTT1=
EXTT2=
EXTT3=
EXTT4=
EXTT5=
EXTT6=
EXTT7=
EXTT8=
PLAYORDER=
